<svg xmlns="http://www.w3.org/2000/svg" xmlns:xlink="http://www.w3.org/1999/xlink" id="processonSvg1000" viewBox="101.0 71.0 873.0 393.0" width="873.0" height="393.0"><defs id="ProcessOnDefs1001"><marker id="ProcessOnMarker1012" markerUnits="userSpaceOnUse" orient="auto" markerWidth="16.23606797749979" markerHeight="10.550836550532098" viewBox="-1.0 -1.3763819204711736 16.23606797749979 10.550836550532098" refX="-1.0" refY="3.8990363547948754"><path id="ProcessOnPath1013" d="M12.0 3.8990363547948754L0.0 7.798072709589751V0.0Z" stroke="#007fff" stroke-width="2.0" fill="#007fff" transform="matrix(1.0,0.0,0.0,1.0,0.0,0.0)"/></marker><marker id="ProcessOnMarker1021" markerUnits="userSpaceOnUse" orient="auto" markerWidth="16.23606797749979" markerHeight="10.550836550532098" viewBox="-1.0 -1.3763819204711736 16.23606797749979 10.550836550532098" refX="-1.0" refY="3.8990363547948754"><path id="ProcessOnPath1022" d="M12.0 3.8990363547948754L0.0 7.798072709589751V0.0Z" stroke="#007fff" stroke-width="2.0" fill="#007fff" transform="matrix(1.0,0.0,0.0,1.0,0.0,0.0)"/></marker><marker id="ProcessOnMarker1029" markerUnits="userSpaceOnUse" orient="auto" markerWidth="16.23606797749979" markerHeight="10.550836550532098" viewBox="-1.0 -1.3763819204711736 16.23606797749979 10.550836550532098" refX="-1.0" refY="3.8990363547948754"><path id="ProcessOnPath1030" d="M12.0 3.8990363547948754L0.0 7.798072709589751V0.0Z" stroke="#ff8000" stroke-width="2.0" fill="#ff8000" transform="matrix(1.0,0.0,0.0,1.0,0.0,0.0)"/></marker><marker id="ProcessOnMarker1033" markerUnits="userSpaceOnUse" orient="auto" markerWidth="16.23606797749979" markerHeight="10.550836550532098" viewBox="-1.0 -1.3763819204711736 16.23606797749979 10.550836550532098" refX="-1.0" refY="3.8990363547948754"><path id="ProcessOnPath1034" d="M12.0 3.8990363547948754L0.0 7.798072709589751V0.0Z" stroke="#009900" stroke-width="2.0" fill="#009900" transform="matrix(1.0,0.0,0.0,1.0,0.0,0.0)"/></marker><marker id="ProcessOnMarker1047" markerUnits="userSpaceOnUse" orient="auto" markerWidth="16.23606797749979" markerHeight="10.550836550532098" viewBox="-1.0 -1.3763819204711736 16.23606797749979 10.550836550532098" refX="-1.0" refY="3.8990363547948754"><path id="ProcessOnPath1048" d="M12.0 3.8990363547948754L0.0 7.798072709589751V0.0Z" stroke="#007fff" stroke-width="2.0" fill="#007fff" transform="matrix(1.0,0.0,0.0,1.0,0.0,0.0)"/></marker><marker id="ProcessOnMarker1051" markerUnits="userSpaceOnUse" orient="auto" markerWidth="16.23606797749979" markerHeight="10.550836550532098" viewBox="-1.0 -1.3763819204711736 16.23606797749979 10.550836550532098" refX="-1.0" refY="3.8990363547948754"><path id="ProcessOnPath1052" d="M12.0 3.8990363547948754L0.0 7.798072709589751V0.0Z" stroke="#007fff" stroke-width="2.0" fill="#007fff" transform="matrix(1.0,0.0,0.0,1.0,0.0,0.0)"/></marker><marker id="ProcessOnMarker1055" markerUnits="userSpaceOnUse" orient="auto" markerWidth="16.23606797749979" markerHeight="10.550836550532098" viewBox="-1.0 -1.3763819204711736 16.23606797749979 10.550836550532098" refX="-1.0" refY="3.8990363547948754"><path id="ProcessOnPath1056" d="M12.0 3.8990363547948754L0.0 7.798072709589751V0.0Z" stroke="#ff8000" stroke-width="2.0" fill="#ff8000" transform="matrix(1.0,0.0,0.0,1.0,0.0,0.0)"/></marker><marker id="ProcessOnMarker1059" markerUnits="userSpaceOnUse" orient="auto" markerWidth="16.23606797749979" markerHeight="10.550836550532098" viewBox="-1.0 -1.3763819204711736 16.23606797749979 10.550836550532098" refX="-1.0" refY="3.8990363547948754"><path id="ProcessOnPath1060" d="M12.0 3.8990363547948754L0.0 7.798072709589751V0.0Z" stroke="#ff8000" stroke-width="2.0" fill="#ff8000" transform="matrix(1.0,0.0,0.0,1.0,0.0,0.0)"/></marker><marker id="ProcessOnMarker1073" markerUnits="userSpaceOnUse" orient="auto" markerWidth="16.23606797749979" markerHeight="10.550836550532098" viewBox="-1.0 -1.3763819204711736 16.23606797749979 10.550836550532098" refX="-1.0" refY="3.8990363547948754"><path id="ProcessOnPath1074" d="M12.0 3.8990363547948754L0.0 7.798072709589751V0.0Z" stroke="#007fff" stroke-width="2.0" fill="#007fff" transform="matrix(1.0,0.0,0.0,1.0,0.0,0.0)"/></marker><marker id="ProcessOnMarker1082" markerUnits="userSpaceOnUse" orient="auto" markerWidth="16.23606797749979" markerHeight="10.550836550532098" viewBox="-1.0 -1.3763819204711736 16.23606797749979 10.550836550532098" refX="-1.0" refY="3.8990363547948754"><path id="ProcessOnPath1083" d="M12.0 3.8990363547948754L0.0 7.798072709589751V0.0Z" stroke="#009900" stroke-width="2.0" fill="#009900" transform="matrix(1.0,0.0,0.0,1.0,0.0,0.0)"/></marker><marker id="ProcessOnMarker1091" markerUnits="userSpaceOnUse" orient="auto" markerWidth="16.23606797749979" markerHeight="10.550836550532098" viewBox="-1.0 -1.3763819204711736 16.23606797749979 10.550836550532098" refX="-1.0" refY="3.8990363547948754"><path id="ProcessOnPath1092" d="M12.0 3.8990363547948754L0.0 7.798072709589751V0.0Z" stroke="#007fff" stroke-width="2.0" fill="#007fff" transform="matrix(1.0,0.0,0.0,1.0,0.0,0.0)"/></marker><marker id="ProcessOnMarker1095" markerUnits="userSpaceOnUse" orient="auto" markerWidth="16.23606797749979" markerHeight="10.550836550532098" viewBox="-1.0 -1.3763819204711736 16.23606797749979 10.550836550532098" refX="-1.0" refY="3.8990363547948754"><path id="ProcessOnPath1096" d="M12.0 3.8990363547948754L0.0 7.798072709589751V0.0Z" stroke="#007fff" stroke-width="2.0" fill="#007fff" transform="matrix(1.0,0.0,0.0,1.0,0.0,0.0)"/></marker><marker id="ProcessOnMarker1103" markerUnits="userSpaceOnUse" orient="auto" markerWidth="16.23606797749979" markerHeight="10.550836550532098" viewBox="-1.0 -1.3763819204711736 16.23606797749979 10.550836550532098" refX="-1.0" refY="3.8990363547948754"><path id="ProcessOnPath1104" d="M12.0 3.8990363547948754L0.0 7.798072709589751V0.0Z" stroke="#007fff" stroke-width="2.0" fill="#007fff" transform="matrix(1.0,0.0,0.0,1.0,0.0,0.0)"/></marker><marker id="ProcessOnMarker1107" markerUnits="userSpaceOnUse" orient="auto" markerWidth="16.23606797749979" markerHeight="10.550836550532098" viewBox="-1.0 -1.3763819204711736 16.23606797749979 10.550836550532098" refX="-1.0" refY="3.8990363547948754"><path id="ProcessOnPath1108" d="M12.0 3.8990363547948754L0.0 7.798072709589751V0.0Z" stroke="#007fff" stroke-width="2.0" fill="#007fff" transform="matrix(1.0,0.0,0.0,1.0,0.0,0.0)"/></marker></defs><g id="ProcessOnG1002"><path id="ProcessOnPath1003" d="M101.0 71.0H974.0V464.0H101.0V71.0Z" fill="none"/><g id="ProcessOnG1004"><g id="ProcessOnG1005" transform="matrix(1.0,0.0,0.0,1.0,121.0,91.0)" opacity="1.0"><path id="ProcessOnPath1006" d="M17.666666666666668 0.0L88.33333333333333 0.0C111.88888888888889 0.0 111.88888888888889 53.0 88.33333333333333 53.0L17.666666666666668 53.0C-5.888888888888889 53.0 -5.888888888888889 0.0 17.666666666666668 0.0Z" stroke="#ffcce6" stroke-width="2.0" stroke-dasharray="none" opacity="1.0" fill="#ffffff"/><g id="ProcessOnG1007" transform="matrix(1.0,0.0,0.0,1.0,10.0,9.0)"><text id="ProcessOnText1008" fill="#000000" font-size="14" x="42.0" y="14.350000000000001" font-family="微软雅黑" font-weight="normal" font-style="normal" text-decoration="none" family="微软雅黑" text-anchor="middle" size="14">确定网站内容</text><text id="ProcessOnText1009" fill="#000000" font-size="14" x="42.0" y="31.85" font-family="微软雅黑" font-weight="normal" font-style="normal" text-decoration="none" family="微软雅黑" text-anchor="middle" size="14">与用户群体</text></g></g><g id="ProcessOnG1010"><path id="ProcessOnPath1011" d="M227.0 117.5L262.0 117.5L262.0 117.5L281.7639320225002 117.5" stroke="#007fff" stroke-width="2.0" stroke-dasharray="none" fill="none" marker-end="url(#ProcessOnMarker1012)"/></g><g id="ProcessOnG1014" transform="matrix(1.0,0.0,0.0,1.0,301.0,91.0)" opacity="1.0"><path id="ProcessOnPath1015" d="M0.0 4.0Q0.0 0.0 4.0 0.0L82.0 0.0Q86.0 0.0 86.0 4.0L86.0 49.0Q86.0 53.0 82.0 53.0L4.0 53.0Q0.0 53.0 0.0 49.0Z" stroke="#ffcce6" stroke-width="2.0" stroke-dasharray="none" opacity="1.0" fill="#ffffff"/><g id="ProcessOnG1016" transform="matrix(1.0,0.0,0.0,1.0,10.0,9.0)"><text id="ProcessOnText1017" fill="#000000" font-size="14" x="32.0" y="14.350000000000001" font-family="微软雅黑" font-weight="normal" font-style="normal" text-decoration="none" family="微软雅黑" text-anchor="middle" size="14">确定网站</text><text id="ProcessOnText1018" fill="#000000" font-size="14" x="32.0" y="31.85" font-family="微软雅黑" font-weight="normal" font-style="normal" text-decoration="none" family="微软雅黑" text-anchor="middle" size="14">架构</text></g></g><g id="ProcessOnG1019"><path id="ProcessOnPath1020" d="M387.0 117.5C413.4 117.5 426.6 117.5 437.7639320225002 117.5" stroke="#007fff" stroke-width="2.0" stroke-dasharray="none" fill="none" marker-end="url(#ProcessOnMarker1021)"/></g><g id="ProcessOnG1023" transform="matrix(1.0,0.0,0.0,1.0,459.0,91.0)" opacity="1.0"><path id="ProcessOnPath1024" d="M0.0 4.0Q0.0 0.0 4.0 0.0L109.0 0.0Q113.0 0.0 113.0 4.0L113.0 49.0Q113.0 53.0 109.0 53.0L4.0 53.0Q0.0 53.0 0.0 49.0Z" stroke="#ffcce6" stroke-width="2.0" stroke-dasharray="none" opacity="1.0" fill="#ffffff"/><g id="ProcessOnG1025" transform="matrix(1.0,0.0,0.0,1.0,10.0,17.75)"><text id="ProcessOnText1026" fill="#000000" font-size="14" x="45.5" y="14.350000000000001" font-family="微软雅黑" font-weight="normal" font-style="normal" text-decoration="none" family="微软雅黑" text-anchor="middle" size="14">UI与交互设计</text></g></g><g id="ProcessOnG1027"><path id="ProcessOnPath1028" d="M344.0 144.0C344.0 193.79317222270538 411.0 194.0 442.7639320225002 194.0" stroke="#ff8000" stroke-width="2.0" stroke-dasharray="none" fill="none" marker-end="url(#ProcessOnMarker1029)"/></g><g id="ProcessOnG1031"><path id="ProcessOnPath1032" d="M344.0 144.0C340.0 234.0 403.0 246.0 440.1541095057195 254.57402527055064" stroke="#009900" stroke-width="2.0" stroke-dasharray="none" fill="none" marker-end="url(#ProcessOnMarker1033)"/></g><g id="ProcessOnG1035" transform="matrix(1.0,0.0,0.0,1.0,459.0,163.0)" opacity="1.0"><path id="ProcessOnPath1036" d="M0.0 4.0Q0.0 0.0 4.0 0.0L109.0 0.0Q113.0 0.0 113.0 4.0L113.0 50.0Q113.0 54.0 109.0 54.0L4.0 54.0Q0.0 54.0 0.0 50.0Z" stroke="#ffcce6" stroke-width="2.0" stroke-dasharray="none" opacity="1.0" fill="#ffffff"/><g id="ProcessOnG1037" transform="matrix(1.0,0.0,0.0,1.0,10.0,9.5)"><text id="ProcessOnText1038" fill="#000000" font-size="14" x="45.5" y="14.350000000000001" font-family="微软雅黑" font-weight="normal" font-style="normal" text-decoration="none" family="微软雅黑" text-anchor="middle" size="14">前端技术选型</text><text id="ProcessOnText1039" fill="#000000" font-size="14" x="45.5" y="31.85" font-family="微软雅黑" font-weight="normal" font-style="normal" text-decoration="none" family="微软雅黑" text-anchor="middle" size="14">与架构设计</text></g></g><g id="ProcessOnG1040" transform="matrix(1.0,0.0,0.0,1.0,459.0,239.0)" opacity="1.0"><path id="ProcessOnPath1041" d="M0.0 4.0Q0.0 0.0 4.0 0.0L109.0 0.0Q113.0 0.0 113.0 4.0L113.0 50.0Q113.0 54.0 109.0 54.0L4.0 54.0Q0.0 54.0 0.0 50.0Z" stroke="#ffcce6" stroke-width="2.0" stroke-dasharray="none" opacity="1.0" fill="#ffffff"/><g id="ProcessOnG1042" transform="matrix(1.0,0.0,0.0,1.0,10.0,9.5)"><text id="ProcessOnText1043" fill="#000000" font-size="14" x="45.5" y="14.350000000000001" font-family="微软雅黑" font-weight="normal" font-style="normal" text-decoration="none" family="微软雅黑" text-anchor="middle" size="14">后端技术选型</text><text id="ProcessOnText1044" fill="#000000" font-size="14" x="45.5" y="31.85" font-family="微软雅黑" font-weight="normal" font-style="normal" text-decoration="none" family="微软雅黑" text-anchor="middle" size="14">与架构设计</text></g></g><g id="ProcessOnG1045"><path id="ProcessOnPath1046" d="M572.0 117.5C598.4 117.5 611.6 117.5 622.7639320225002 117.5" stroke="#007fff" stroke-width="2.0" stroke-dasharray="none" fill="none" marker-end="url(#ProcessOnMarker1047)"/></g><g id="ProcessOnG1049"><path id="ProcessOnPath1050" d="M572.0 190.0C611.2168331204854 190.0 620.0 141.0 628.7352993544687 129.59558139833248" stroke="#007fff" stroke-width="2.0" stroke-dasharray="none" fill="none" marker-end="url(#ProcessOnMarker1051)"/></g><g id="ProcessOnG1053"><path id="ProcessOnPath1054" d="M572.0 190.0C598.0 213.0 609.0 212.0 623.2492478424791 215.68515030408943" stroke="#ff8000" stroke-width="2.0" stroke-dasharray="none" fill="none" marker-end="url(#ProcessOnMarker1055)"/></g><g id="ProcessOnG1057"><path id="ProcessOnPath1058" d="M572.0 266.0C604.2942719379149 266.0 617.0 239.0 626.8351085481123 229.86739920532432" stroke="#ff8000" stroke-width="2.0" stroke-dasharray="none" fill="none" marker-end="url(#ProcessOnMarker1059)"/></g><g id="ProcessOnG1061" transform="matrix(1.0,0.0,0.0,1.0,638.0,91.0)" opacity="1.0"><path id="ProcessOnPath1062" d="M0.0 4.0Q0.0 0.0 4.0 0.0L109.0 0.0Q113.0 0.0 113.0 4.0L113.0 49.0Q113.0 53.0 109.0 53.0L4.0 53.0Q0.0 53.0 0.0 49.0Z" stroke="#ffcce6" stroke-width="2.0" stroke-dasharray="none" opacity="1.0" fill="#ffffff"/><g id="ProcessOnG1063" transform="matrix(1.0,0.0,0.0,1.0,10.0,9.0)"><text id="ProcessOnText1064" fill="#000000" font-size="14" x="45.5" y="14.350000000000001" font-family="微软雅黑" font-weight="normal" font-style="normal" text-decoration="none" family="微软雅黑" text-anchor="middle" size="14">前端页面与交</text><text id="ProcessOnText1065" fill="#000000" font-size="14" x="45.5" y="31.85" font-family="微软雅黑" font-weight="normal" font-style="normal" text-decoration="none" family="微软雅黑" text-anchor="middle" size="14">互开发</text></g></g><g id="ProcessOnG1066" transform="matrix(1.0,0.0,0.0,1.0,638.0,193.0)" opacity="1.0"><path id="ProcessOnPath1067" d="M0.0 4.0Q0.0 0.0 4.0 0.0L109.0 0.0Q113.0 0.0 113.0 4.0L113.0 49.0Q113.0 53.0 109.0 53.0L4.0 53.0Q0.0 53.0 0.0 49.0Z" stroke="#ffcce6" stroke-width="2.0" stroke-dasharray="none" opacity="1.0" fill="#ffffff"/><g id="ProcessOnG1068" transform="matrix(1.0,0.0,0.0,1.0,10.0,9.0)"><text id="ProcessOnText1069" fill="#000000" font-size="14" x="45.5" y="14.350000000000001" font-family="微软雅黑" font-weight="normal" font-style="normal" text-decoration="none" family="微软雅黑" text-anchor="middle" size="14">前端页面Ajax</text><text id="ProcessOnText1070" fill="#000000" font-size="14" x="45.5" y="31.85" font-family="微软雅黑" font-weight="normal" font-style="normal" text-decoration="none" family="微软雅黑" text-anchor="middle" size="14">开发</text></g></g><g id="ProcessOnG1071"><path id="ProcessOnPath1072" d="M572.0 266.0C593.0 298.0 603.5065223556685 321.5 622.7639320225002 321.5" stroke="#007fff" stroke-width="2.0" stroke-dasharray="none" fill="none" marker-end="url(#ProcessOnMarker1073)"/></g><g id="ProcessOnG1075" transform="matrix(1.0,0.0,0.0,1.0,638.0,295.0)" opacity="1.0"><path id="ProcessOnPath1076" d="M0.0 4.0Q0.0 0.0 4.0 0.0L109.0 0.0Q113.0 0.0 113.0 4.0L113.0 49.0Q113.0 53.0 109.0 53.0L4.0 53.0Q0.0 53.0 0.0 49.0Z" stroke="#ffcce6" stroke-width="2.0" stroke-dasharray="none" opacity="1.0" fill="#ffffff"/><g id="ProcessOnG1077" transform="matrix(1.0,0.0,0.0,1.0,10.0,9.0)"><text id="ProcessOnText1078" fill="#000000" font-size="14" x="45.5" y="14.350000000000001" font-family="微软雅黑" font-weight="normal" font-style="normal" text-decoration="none" family="微软雅黑" text-anchor="middle" size="14">后端API及数</text><text id="ProcessOnText1079" fill="#000000" font-size="14" x="45.5" y="31.85" font-family="微软雅黑" font-weight="normal" font-style="normal" text-decoration="none" family="微软雅黑" text-anchor="middle" size="14">据库开发</text></g></g><g id="ProcessOnG1080"><path id="ProcessOnPath1081" d="M572.0 266.0C589.0 316.0 571.8991679326198 417.5 622.7639320225002 417.5" stroke="#009900" stroke-width="2.0" stroke-dasharray="none" fill="none" marker-end="url(#ProcessOnMarker1082)"/></g><g id="ProcessOnG1084" transform="matrix(1.0,0.0,0.0,1.0,638.0,391.0)" opacity="1.0"><path id="ProcessOnPath1085" d="M0.0 4.0Q0.0 0.0 4.0 0.0L109.0 0.0Q113.0 0.0 113.0 4.0L113.0 49.0Q113.0 53.0 109.0 53.0L4.0 53.0Q0.0 53.0 0.0 49.0Z" stroke="#ffcce6" stroke-width="2.0" stroke-dasharray="none" opacity="1.0" fill="#ffffff"/><g id="ProcessOnG1086" transform="matrix(1.0,0.0,0.0,1.0,10.0,9.0)"><text id="ProcessOnText1087" fill="#000000" font-size="14" x="45.5" y="14.350000000000001" font-family="微软雅黑" font-weight="normal" font-style="normal" text-decoration="none" family="微软雅黑" text-anchor="middle" size="14">后端部署及运</text><text id="ProcessOnText1088" fill="#000000" font-size="14" x="45.5" y="31.85" font-family="微软雅黑" font-weight="normal" font-style="normal" text-decoration="none" family="微软雅黑" text-anchor="middle" size="14">维</text></g></g><g id="ProcessOnG1089"><path id="ProcessOnPath1090" d="M751.0 117.5C787.0 117.5 805.0 117.5 825.7639320225002 117.5" stroke="#007fff" stroke-width="2.0" stroke-dasharray="none" fill="none" marker-end="url(#ProcessOnMarker1091)"/></g><g id="ProcessOnG1093"><path id="ProcessOnPath1094" d="M751.0 219.5C780.0 213.0 789.0 151.0 822.2381080078927 129.32297303833084" stroke="#007fff" stroke-width="2.0" stroke-dasharray="none" fill="none" marker-end="url(#ProcessOnMarker1095)"/></g><g id="ProcessOnG1097" transform="matrix(1.0,0.0,0.0,1.0,841.0,91.0)" opacity="1.0"><path id="ProcessOnPath1098" d="M0.0 4.0Q0.0 0.0 4.0 0.0L109.0 0.0Q113.0 0.0 113.0 4.0L113.0 49.0Q113.0 53.0 109.0 53.0L4.0 53.0Q0.0 53.0 0.0 49.0Z" stroke="#ffcce6" stroke-width="2.0" stroke-dasharray="none" opacity="1.0" fill="#ffffff"/><g id="ProcessOnG1099" transform="matrix(1.0,0.0,0.0,1.0,10.0,17.75)"><text id="ProcessOnText1100" fill="#000000" font-size="14" x="45.5" y="14.350000000000001" font-family="微软雅黑" font-weight="normal" font-style="normal" text-decoration="none" family="微软雅黑" text-anchor="middle" size="14">测试及维护</text></g></g><g id="ProcessOnG1101"><path id="ProcessOnPath1102" d="M751.0 321.5C805.0 318.0 797.0 182.0 832.4139345671578 130.08639137314373" stroke="#007fff" stroke-width="2.0" stroke-dasharray="none" fill="none" marker-end="url(#ProcessOnMarker1103)"/></g><g id="ProcessOnG1105"><path id="ProcessOnPath1106" d="M751.0 417.5C832.0 417.0 818.0 192.0 836.5055584591452 132.0580823823343" stroke="#007fff" stroke-width="2.0" stroke-dasharray="none" fill="none" marker-end="url(#ProcessOnMarker1107)"/></g></g></g></svg>